<svg version="1.1" fill="#f3f3f3" xmlns="http://www.w3.org/2000/svg" x="0" y="0" viewBox="0 0 93 24" style="enable-background:new 0 0 93 24" xml:space="preserve"><path d="M13.4 7 8.7 19.5 4 7H0l6.6 16.5h4.2L17.4 7h-4zM37.3 7h3.6v16.5h-3.6zM37.5.7c-.8.9-.8 2.2.1 3.1.9.8 2.2.9 3.2.1.4-.4.7-1 .7-1.6 0-.6-.2-1.2-.7-1.6-.4-.4-1-.7-1.6-.7-.7 0-1.3.2-1.7.7zM52.1 20.4c-1.4 0-2.8-.5-3.7-1.5-1-1-1.5-2.2-1.5-3.7s.5-2.7 1.5-3.7 2.3-1.5 3.7-1.5c2 0 3.6 1 4.4 2.5l3.1-1.8c-1.3-2.6-4.2-4.3-7.5-4.3-2.5 0-4.7.8-6.4 2.5-1.7 1.6-2.5 3.7-2.5 6.2 0 2.4.8 4.5 2.5 6.2 1.7 1.7 3.8 2.5 6.4 2.5 3.3 0 6.1-1.6 7.6-4.3l-3.1-1.8c-.8 1.7-2.5 2.7-4.5 2.7z"/><path d="M26.1 6.6c2.5 0 4.6.8 6.3 2.5 1.7 1.7 2.6 3.7 2.6 6.2 0 2.4-.9 4.5-2.6 6.2-1.7 1.7-3.8 2.5-6.3 2.5s-4.6-.8-6.3-2.5c-1.7-1.7-2.6-3.7-2.6-6.2 0-2.4.9-4.5 2.6-6.2 1.7-1.7 3.8-2.5 6.3-2.5zM22.3 19c2.1 2 5.4 2 7.5 0 1-1 1.5-2.2 1.5-3.7s-.5-2.7-1.5-3.7c-2.1-2-5.4-2-7.5 0-1 1-1.5 2.2-1.5 3.7 0 1.4.5 2.7 1.5 3.7zM75.7 9.1c1.6 1.7 2.4 3.8 2.4 6.2 0 .5 0 1-.1 1.5H64.6c.5 2.5 2.6 3.9 5.4 3.9 1.9 0 3.4-.7 4.3-2l3 1.7c-1.7 2.4-4.1 3.6-7.4 3.6-2.7 0-5-.8-6.6-2.4-1.7-1.6-2.5-3.7-2.5-6.2s.8-4.5 2.5-6.2c1.7-1.7 3.8-2.5 6.4-2.5 2.4-.1 4.5.7 6 2.4zm-6 .7c-2.7 0-4.6 1.5-5.1 4.1h9.9c-.5-2.7-2.4-4.1-4.8-4.1z"/><path d="M83.8 23.5h.7v-4.9h1.8V18H82v.6h1.8v4.9zM92 23.5h.7V18h-1l-1.8 4.2-1.7-4.2h-1v5.5h.7v-4.6l1.9 4.6h.3l1.9-4.6v4.6z"/></svg>
